<?xml version="1.0" encoding="utf-8"?>
<!-- Generator: Adobe Illustrator 16.0.4, SVG Export Plug-In . SVG Version: 6.00 Build 0)  -->
<!DOCTYPE svg PUBLIC "-//W3C//DTD SVG 1.1//EN" "http://www.w3.org/Graphics/SVG/1.1/DTD/svg11.dtd">
<svg version="1.1" id="Layer_1" xmlns="http://www.w3.org/2000/svg" xmlns:xlink="http://www.w3.org/1999/xlink" x="0px" y="0px"
	 width="400px" height="400px" viewBox="0 0 400 400" enable-background="new 0 0 400 400" xml:space="preserve">
<g>
	<path fill="#FFFFFF" d="M334.99,125.043H65.01c-14.889,0-27.026,12.102-27.026,27.026v73.917c0,4.904,1.341,9.49,3.634,13.514
		c0.07,0.247,0.176,0.459,0.317,0.67l18.77,32.495c0.812,1.411,2.329,2.293,3.952,2.293c1.623,0,3.105-0.882,3.952-2.293
		l11.361-19.651h255.02c14.924,0,27.025-12.103,27.025-27.027V152.07C362.018,137.145,349.914,125.043,334.99,125.043
		 M352.243,225.984c0,9.525-7.728,17.254-17.253,17.254H65.01c-9.526,0-17.253-7.729-17.253-17.254v-73.917
		c0-9.526,7.727-17.253,17.253-17.253h269.98c9.525,0,17.253,7.727,17.253,17.253V225.984z"/>
	<path fill="#FFFFFF" d="M104.844,171.58c-4.728-2.964-9.915-4.446-15.56-4.446c-5.539,0.247-10.549,1.87-15.1,4.799
		c-4.551,2.963-6.845,8.785-6.845,17.5v29.99h13.478v-32.672c0-3.069,0.882-5.292,2.681-6.739c1.8-1.411,3.846-2.081,6.175-2.081
		c2.293,0,4.375,0.67,6.244,2.081c1.87,1.447,2.788,3.67,2.788,6.739v26.146c0,1.939,0.599,3.492,1.834,4.729
		c1.2,1.2,2.788,1.8,4.693,1.8h6.739v-29.99C111.971,180.471,109.607,174.509,104.844,171.58"/>
	<path fill="#FFFFFF" d="M154.345,170.804c-3.563-2.434-8.962-3.67-16.159-3.67c-6.386,0-11.326,1.482-14.783,4.446
		c-3.105,2.54-4.869,5.822-5.399,9.809h12.878c0.671-1.411,1.694-2.399,3.105-2.894c1.376-0.529,2.999-0.776,4.798-0.776
		c1.659,0,3.494,0.282,5.469,0.847c1.976,0.6,2.999,1.834,2.999,3.775c0,2.576-2.823,4.199-8.468,4.975
		c-1.164,0.141-2.187,0.318-3.069,0.494c-0.917,0.211-1.659,0.282-2.329,0.282c-4.869,0.777-8.855,2.329-11.996,4.622
		c-3.175,2.293-4.728,6.139-4.728,11.573c0,5.715,1.729,9.843,5.187,12.384c3.493,2.47,7.515,3.74,12.137,3.74
		c2.294,0,4.975-0.177,7.974-0.494s5.857-1.2,8.538-2.61c2.576-1.271,4.799-3.353,6.669-6.211c1.834-2.892,2.787-6.914,2.787-12.031
		v-17.5C159.955,176.943,158.084,173.344,154.345,170.804 M147.43,198.501c0,3.563-1.023,6.385-3.07,8.467
		c-2.046,2.048-4.869,3.034-8.468,3.034c-2.152,0-3.845-0.494-5.01-1.518c-1.129-1.129-1.728-2.683-1.728-4.62
		c0-1.412,0.458-2.823,1.34-4.235c1.059-1.023,2.717-1.835,5.01-2.504l4.446-0.954c3.175-0.74,5.716-1.587,7.48-2.469V198.501
		L147.43,198.501z"/>
	<path fill="#FFFFFF" d="M200.988,168.299c-3.069,0-5.117,1.517-6.14,4.622l-9.032,31.366l-10.197-35.988H161.4l17.853,51.124
		h13.654l18.065-51.124H200.988L200.988,168.299z"/>
	<path fill="#FFFFFF" d="M250.771,174.05c-4.271-4.586-10.195-6.915-17.924-6.915c-7.304,0-13.02,2.399-17.111,7.126
		c-3.986,4.623-5.963,11.009-5.963,19.229c0,8.574,2.047,15.172,6.176,19.794c4.092,4.764,9.808,7.127,17.111,7.127
		c6.033,0,11.006-1.481,14.994-4.445c3.95-2.788,6.668-6.915,8.078-12.278h-9.632c-1.519,0-2.717,0.316-3.562,0.953
		c-0.812,0.635-1.308,1.164-1.412,1.551c-0.424,0.354-0.74,0.707-1.06,1.062c-0.353,0.28-0.704,0.528-1.094,0.636
		c-1.519,0.918-3.354,1.375-5.575,1.375c-3.314,0-5.82-1.058-7.479-3.068c-1.799-1.904-2.752-4.869-2.856-8.855H256.7
		c0.141-0.247,0.176-0.705,0.176-1.34v-2.117C256.875,185.411,254.829,178.812,250.771,174.05 M223.463,188.657
		c0.105-3.316,1.059-5.857,2.857-7.656c1.8-1.8,4.093-2.682,6.916-2.682c3.068,0,5.469,0.882,7.127,2.682
		c1.517,1.657,2.434,4.234,2.682,7.656H223.463z"/>
	<path fill="#FFFFFF" d="M298.79,171.58c-4.763-2.964-9.949-4.446-15.595-4.446c-5.504,0.247-10.549,1.87-15.065,4.799
		c-4.551,2.963-6.845,8.785-6.845,17.5v29.99h13.441v-32.672c0-3.069,0.918-5.292,2.717-6.739c1.765-1.411,3.812-2.081,6.14-2.081
		c2.294,0,4.375,0.67,6.246,2.081c1.868,1.447,2.787,3.67,2.787,6.739v26.146c0,1.939,0.635,3.492,1.835,4.729
		c1.234,1.2,2.787,1.8,4.729,1.8h6.702v-29.99C305.882,180.471,303.518,174.509,298.79,171.58"/>
	<path fill="#FFFFFF" d="M326.134,180.294c1.765,0,3.317-0.6,4.587-1.799c1.307-1.235,1.905-2.823,1.905-4.727v-5.293h-7.867v-8.644
		c0-1.8-0.636-3.317-1.905-4.587c-1.271-1.305-2.752-1.94-4.444-1.94h-6.915v56.522c0,5.893,2.47,9.031,7.408,9.42
		s9.49,0.458,13.726,0.177v-9.983h-4.021c-2.541,0-3.846-1.062-3.846-3.248v-25.896L326.134,180.294L326.134,180.294z"/>
</g>
</svg>



